#!OML:ASF I:\Actors\actors\Patient Classification 2\Patient 1\Session 1\actor1.ASF
:FULLY-SPECIFIED
:DEGREES
432
root -0.767718 18.0709 5.77395 -3.2044 2.88358 -7.10042
lowerback 5.63292 -3.35511 -5.55375
upperback 0.913842 -4.86563 -3.20307
thorax -2.02696 -2.39029 0.144213
lowerneck -10.9549 -9.57518 -12.7514
upperneck 33.4091 -14.8131 10.1236
head 15.3331 -6.89711 3.82897
rclavicle -6.26172e-015 7.31528e-014
rhumerus 56.8158 -4.3815 -11.0097
rradius 99.8544
rwrist 13.3484
rhand -16.4076 0.677182
rfingers 7.12502
rthumb 9.80694 -29.0745
lclavicle -6.26172e-015 7.31528e-014
lhumerus 76.1979 -78.8067 13.6577
lradius 106.005
lwrist 7.14628
lhand 2.51496 -53.0848
lfingers 7.12502
lthumb 27.997 -25.153
rfemur 0 0 0
rtibia 0
rfoot 0 0
rtoes 0
lfemur 22.7996 -10.9904 -11.0202
ltibia -23.569
lfoot -0.486024 19.3144
ltoes -8.8418
433
root -0.772425 18.0708 5.78258 -3.18132 3.04417 -7.18979
lowerback 5.55197 -3.35536 -5.46205
upperback 0.891173 -4.85591 -3.22139
thorax -2.0148 -2.38626 0.0701218
lowerneck -11.062 -9.57312 -12.8855
upperneck 33.4861 -14.8859 10.4165
head 15.4557 -6.90564 3.95985
rclavicle 1.50579e-014 2.8625e-014
rhumerus 56.8982 -4.16811 -10.7196
rradius 99.9582
rwrist 13.0681
rhand -16.601 0.604961
rfingers 7.12502
rthumb 9.62037 -29.1554
lclavicle 1.50579e-014 2.8625e-014
lhumerus 81.8925 -78.5737 7.04278
lradius 105.911
lwrist 8.43654
lhand 5.3259 -53.7637
lfingers 7.12502
lthumb 30.6808 -26.3018
rfemur 0 0 0
rtibia 0
rfoot 0 0
rtoes 0
lfemur 22.775 -10.9237 -10.8686
ltibia -23.642
lfoot -0.353153 19.0981
ltoes -8.84704
434
root -0.774985 18.0713 5.79169 -3.17357 3.20056 -7.16711
lowerback 5.46211 -3.35702 -5.45981
upperback 0.865741 -4.8532 -3.26373
thorax -1.99493 -2.38518 0.0203283
lowerneck -11.1794 -9.58714 -12.826
upperneck 33.5061 -14.9372 10.4812
head 15.5027 -6.90683 3.96297
rclavicle -1.98785e-015 -9.54166e-015
rhumerus 56.9699 -3.92873 -10.3351
rradius 99.9975
rwrist 12.788
rhand -16.9552 0.605638
rfingers 7.12502
rthumb 9.27859 -29.1702
lclavicle -1.98785e-015 -9.54166e-015
lhumerus 86.6521 -78.1625 1.47096
lradius 105.617
lwrist 9.21677
lhand 8.47698 -54.3994
lfingers 7.12502
lthumb 33.6804 -27.5453
rfemur 0 0 0
rtibia 0
rfoot 0 0
rtoes 0
lfemur 22.7849 -10.8883 -10.8684
ltibia -23.7119
lfoot -0.275271 18.942
ltoes -8.88574
435
root -0.777306 18.0701 5.8013 -3.18724 3.34698 -7.08171
lowerback 5.38334 -3.3523 -5.52608
upperback 0.851344 -4.84615 -3.31465
thorax -1.96507 -2.38175 -0.000717578
lowerneck -11.2315 -9.58853 -12.8178
upperneck 33.4544 -14.9817 10.6214
head 15.5126 -6.90597 4.00941
rclavicle 1.26228e-014 9.54166e-015
rhumerus 57.0615 -3.69922 -9.88649
rradius 99.9094
rwrist 12.4609
rhand -17.3625 0.789581
rfingers 7.12502
rthumb 8.88551 -29.0033
lclavicle 1.26228e-014 9.54166e-015
lhumerus 89.5279 -77.6217 -2.04543
lradius 105.097
lwrist 8.89748
lhand 12.0689 -55.7923
lfingers 7.12502
lthumb 37.0858 -29.75
rfemur 0 0 0
rtibia 0
rfoot 0 0
rtoes 0
lfemur 22.8178 -10.8492 -10.9497
ltibia -23.7642
lfoot -0.212374 18.7881
ltoes -9.14226
436
root -0.780632 18.0674 5.80974 -3.19948 3.47548 -7.07793
lowerback 5.31518 -3.34527 -5.53339
upperback 0.828785 -4.8332 -3.32562
thorax -1.95117 -2.37532 -0.0123968
lowerneck -11.2382 -9.58857 -12.7946
upperneck 33.3741 -14.9919 10.6675
head 15.4794 -6.90152 4.02079
rclavicle 1.76421e-014 1.59028e-014
rhumerus 57.1649 -3.46767 -9.40845
rradius 99.7639
rwrist 12.1443
rhand -17.7193 1.09132
rfingers 7.12502
rthumb 8.54126 -28.7159
lclavicle 1.76421e-014 1.59028e-014
lhumerus 90.8564 -77.0507 -3.77146
lradius 104.427
lwrist 7.65449
lhand 9.69007 -56.7753
lfingers 7.12502
lthumb 34.8323 -30.1802
rfemur 0 0 0
rtibia 0
rfoot 0 0
rtoes 0
lfemur 22.8287 -10.8489 -10.9377
ltibia -23.7911
lfoot -0.148087 18.6838
ltoes -9.3628
437
root -0.783474 18.067 5.81721 -3.20078 3.56953 -7.11142
lowerback 5.25489 -3.34934 -5.51338
upperback 0.788133 -4.8347 -3.30716
thorax -1.95951 -2.37551 -0.00676884
lowerneck -11.3682 -9.57262 -12.6942
upperneck 33.4227 -14.9365 10.5421
head 15.4986 -6.8732 3.95729
rclavicle -4.29375e-014 1.59028e-014
rhumerus 57.327 -3.19301 -8.96045
rradius 99.6454
rwrist 11.8115
rhand -17.8614 1.22316
rfingers 7.12502
rthumb 8.40411 -28.5896
lclavicle -4.29375e-014 1.59028e-014
lhumerus 90.9206 -76.5038 -4.03789
lradius 103.809
lwrist 5.78924
lhand 7.74034 -58.4246
lfingers 7.12502
lthumb 32.9801 -31.4202
rfemur 0 0 0
rtibia 0
rfoot 0 0
rtoes 0
lfemur 22.8325 -10.8976 -10.8921
ltibia -23.8105
lfoot -0.0970479 18.6648
ltoes -9.41605
438
root -0.785521 18.0675 5.82352 -3.19151 3.63658 -7.13113
lowerback 5.22046 -3.36115 -5.50421
upperback 0.737752 -4.84987 -3.29131
thorax -1.99119 -2.38174 0.00501082
lowerneck -11.5508 -9.53134 -12.5527
upperneck 33.4891 -14.8716 10.4701
head 15.5391 -6.82743 3.91048
rclavicle -6.05299e-014 -1.59028e-014
rhumerus 57.5482 -2.85909 -8.59812
rradius 99.5161
rwrist 11.4114
rhand -17.7196 1.19769
rfingers 7.12502
rthumb 8.5409 -28.6096
lclavicle -6.05299e-014 -1.59028e-014
lhumerus 89.6912 -75.9523 -2.83837
lradius 103.233
lwrist 3.22047
lhand 5.82775 -60.5516
lfingers 7.12502
lthumb 31.1592 -33.1806
rfemur 0 0 0
rtibia 0
rfoot 0 0
rtoes 0
lfemur 22.8318 -10.9231 -10.8602
ltibia -23.829
lfoot -0.053335 18.6247
ltoes -9.54104
439
root -0.786578 18.0668 5.82781 -3.16851 3.71094 -7.15708
lowerback 5.21598 -3.38342 -5.47893
upperback 0.682139 -4.88094 -3.28066
thorax -2.04623 -2.39541 0.00577388
lowerneck -11.6737 -9.46835 -12.4172
upperneck 33.4469 -14.7513 10.3713
head 15.5009 -6.76512 3.86392
rclavicle 5.99336e-014 -3.18055e-014
rhumerus 57.7902 -2.60353 -8.11265
rradius 99.2606
rwrist 10.9676
rhand -17.6018 1.09315
rfingers 7.12502
rthumb 8.65465 -28.7094
lclavicle 5.99336e-014 -3.18055e-014
lhumerus 87.4403 -75.3324 -0.412084
lradius 102.637
lwrist 0.0768685
lhand 2.06616 -62.7781
lfingers 7.12502
lthumb 27.5679 -34.777
rfemur 0 0 0
rtibia 0
rfoot 0 0
rtoes 0
lfemur 22.7973 -10.8888 -10.8083
ltibia -23.834
lfoot -0.0208625 18.5124
ltoes -9.59493
440
root -0.787482 18.0663 5.83163 -3.15091 3.78569 -7.15302
lowerback 5.23002 -3.4142 -5.49363
upperback 0.644419 -4.92574 -3.26627
thorax -2.08893 -2.41601 0.0336271
lowerneck -11.9468 -9.3766 -12.1859
upperneck 33.4932 -14.5755 10.1861
head 15.5125 -6.67019 3.77195
rclavicle 1.70955e-014 0
rhumerus 58.0314 -2.47443 -7.42659
rradius 98.9743
rwrist 10.5396
rhand -17.5539 0.904923
rfingers 7.12502
rthumb 8.70084 -28.8958
lclavicle 1.70955e-014 0
lhumerus 84.7341 -74.597 2.64782
lradius 102.171
lwrist -2.8427
lhand -2.47323 -63.6624
lfingers 7.12502
lthumb 23.2194 -35.0421
rfemur 0 0 0
rtibia 0
rfoot 0 0
rtoes 0
lfemur 22.7629 -10.8218 -10.7844
ltibia -23.835
lfoot 0.00897426 18.3883
ltoes -9.47737
